<svg xmlns="http://www.w3.org/2000/svg" width="347" height="61" viewBox="0 0 347 61">
	<title>Marcel Koch</title>
	<style>
				/* Source: marcelkoch.net - white fills for purple header when used as img */
		#mknet__logo path { fill: #ffffff; }
	</style>
	<g id="Page-1" stroke="none" stroke-width="1" fill="none" fill-rule="evenodd">
		<g id="mknet__logo">
			<path d="M205.5 56.1 187 30.3l18.5-25.8c1.4-1.9 0-4.5-2.3-4.5h-16.3c-1.8 0-3.6.9-4.6 2.4l-25.7 35.8c-1.2 1.7-2 2.7-3.7 2.7-1.8 0-2.6-1-3.8-2.7l-11.9-16.6c-5.1-7-12.3-11.1-20.1-11.1-7.7 0-15.1 4-20.1 11.1L85.1 38.2c-1.2 1.7-1.9 2.7-3.7 2.7-1.8 0-2.6-1-3.8-2.7L65.7 21.6c-5.1-7-12.3-11.1-20.1-11.1-7.7 0-15.1 4-20.1 11.1L.9 56.1c-1.4 1.9 0 4.5 2.3 4.5h16.3c1.8 0 3.6-.9 4.6-2.4L42 33.3c1.2-1.7 2-2.7 3.7-2.7 1.7 0 2.6 1 3.8 2.7l11.9 16.6c5.1 7 12.3 11.1 20.1 11.1 7.7 0 15.1-4 20.1-11.1l11.9-16.6c1.2-1.7 1.8-2.7 3.7-2.7 1.9 0 2.6 1 3.8 2.7l11.9 16.6C138 56.9 145.2 61 153 61c7.7 0 15.1-4 20.1-11.1l1.7-2.4 7.7 10.7c1.1 1.5 2.8 2.4 4.6 2.4h16.3c2.1 0 3.4-2.6 2.1-4.5Z" id="Path"/>
			<g id="Group" transform="translate(220 10)">
				<path d="M23.2.8h-2.7c-.4 0-.7.2-.9.4l-7.3 8.9-7-8.8h-.1C5 1 4.6.7 4.2.7H1.5C.8.7.2 1.2.2 2v19.4c0 .7.5 1.3 1.3 1.3h2.7c.7 0 1.3-.6 1.3-1.3V9.5l5.9 7c.5.6 1.4.6 1.9 0l6-7.2v12.1c0 .7.5 1.3 1.3 1.3h2.7c.7 0 1.3-.6 1.3-1.3V2.1c-.2-.7-.7-1.3-1.4-1.3ZM125.1 17.8h-6.6V7.1c0-.8-.7-1.5-1.5-1.5h-2c-.8 0-1.5.7-1.5 1.5v14.1c0 .8.7 1.5 1.5 1.5h10.2c.8 0 1.5-.7 1.5-1.5v-2c-.1-.8-.7-1.4-1.6-1.4ZM105.8 5.6H95.3c-.8 0-1.5.7-1.5 1.5V21.2c0 .8.7 1.5 1.5 1.5h10.5c.8 0 1.5-.7 1.5-1.5v-1c0-.8-.7-1.5-1.5-1.5h-6.9V16h6.9c.8 0 1.5-.7 1.5-1.5v-1c0-.8-.7-1.5-1.5-1.5h-6.9V9.6h6.9c.8 0 1.5-.7 1.5-1.5v-1c-.1-.8-.7-1.5-1.5-1.5ZM82.2 33.5h-2.1c-.8 0-1.5.7-1.5 1.5v5.1h-6.8V35c0-.8-.7-1.5-1.5-1.5h-2.1c-.8 0-1.5.7-1.5 1.5v14.1c0 .8.7 1.5 1.5 1.5h2.1c.8 0 1.5-.7 1.5-1.5V44h6.8v5.1c0 .8.7 1.5 1.5 1.5h2.1c.8 0 1.5-.7 1.5-1.5V34.9c0-.8-.7-1.4-1.5-1.4ZM85.7 18.2c-.4-.4-1-.5-1.5-.4-.4.3-1 .4-1.5.4-2.5 0-4.4-2.3-3.9-4.9.3-1.5 1.5-2.7 2.9-3 .9-.2 1.7-.1 2.4.1.5.2 1.1.1 1.5-.4l1.5-1.5c.7-.7.5-1.8-.4-2.4-1.4-.7-2.9-1.1-4.6-1-4.6.2-8.3 4.1-8.5 8.6-.2 5.2 3.9 9.4 9 9.4 1.5 0 2.9-.4 4.2-1 .9-.4 1.1-1.6.4-2.4l-1.5-1.5ZM58.6 46c-.4-.4-1-.5-1.5-.4-.4.3-1 .4-1.5.4-2.5 0-4.4-2.3-3.9-4.9.3-1.5 1.5-2.7 2.9-3 .9-.2 1.7-.1 2.4.1.5.2 1.1.1 1.5-.4l1.5-1.5c.7-.7.5-1.8-.4-2.4-1.4-.7-2.9-1.1-4.6-1-4.6.2-8.3 4.1-8.5 8.6-.2 5.2 3.9 9.4 9 9.4 1.5 0 2.9-.4 4.2-1 .9-.4 1.1-1.6.4-2.4L58.6 46Z" id="Path"/>
				<path d="M33 33c-4.9 0-9 4.1-9 9s4.1 9 9 9 9-4.1 9-9-4-9-9-9Zm0 13c-2.2 0-4-1.8-4-4s1.8-4 4-4 4 1.8 4 4-1.8 4-4 4ZM42.7 6.4c-.2-.5-.7-.8-1.2-.8h-4.4c-.5 0-1 .3-1.2.8L30.2 21c-.3.8.3 1.7 1.2 1.7h2.9c.5 0 1-.4 1.2-.9l.7-2.3h6.3l.7 2.3c.1.5.7.9 1.2.9h2.9c.9 0 1.5-.9 1.2-1.7L42.7 6.4Zm-5.2 9.2 1.9-6.2 1.9 6.2h-3.8ZM64.9 15.9c2-.6 3.5-2.7 3.5-5 0-2.9-2.2-5.2-4.9-5.2H56c-.8 0-1.5.7-1.5 1.5v14.1c0 .8.7 1.5 1.5 1.5h2.1c.8 0 1.5-.7 1.5-1.5v-4.8s0 .1.1.1l4.2 5.6c.2.3.6.5 1 .5h2.7c1 0 1.6-1.2 1-2l-3.7-4.8Zm-1.4-4.8c0 1.3-1.1 2.4-2.5 2.4h-1.5V8.8H61c1.4-.1 2.5 1 2.5 2.3Z" id="Shape" fill-rule="nonzero"/>
				<path d="m13.3 39.7 6.6-9.1c.6-.8 0-2-1-2H16c-.3 0-.8.2-.9.5L5.4 42.3V29.9c0-.7-.5-1.3-1.3-1.3H1.4c-.7 0-1.3.5-1.3 1.3v19.4c0 .7.5 1.3 1.3 1.3H4.6c.4 0 .8-.2 1-.5l4.6-6.3 4.8 6.3c.2.3.6.5 1 .5h2.8c1 0 1.6-1.2 1-2l-6.5-8.9Z" id="Path"/>
			</g>
		</g>
	</g>
</svg>
